STARTFONT 2.1
COMMENT METAFONT output 1995.04.13:1748
COMMENT fontid=MSBM V2.2
COMMENT codingscheme=TeX math symbols
COMMENT fontfacebyte
COMMENT jobname=msbm10
COMMENT mag=0.4
COMMENT mode=cx
COMMENT pixels_per_inch=300
COMMENT blacker=0
COMMENT fillin=0.2
COMMENT o_correction=0.6
COMMENT Checksum 88b616c8
COMMENT 
COMMENT This file is made by pktobdf using the above specified pk file.
COMMENT 
FONT -metafont-msbm10-medium-r-normal--17-160-75-75-P-106-MetaFont-FONTSPECIFIC
SIZE 17 75 75
FONTBOUNDINGBOX 39 23 -1 -8
STARTPROPERTIES 21
FONT_ASCENT 14
FONT_DESCENT 7
FOUNDRY "metafont"
FAMILY_NAME "msbm10"
WEIGHT_NAME "medium"
SLANT "r"
SETWIDTH_NAME "normal"
ADD_STYLE_NAME ""
PIXEL_SIZE 17
POINT_SIZE 160
RESOLUTOIN_X 75
RESOLUTOIN_Y 75
SPACING "P"
AVERAGE_WIDTH 106
CHARSET_REGISTRY "MetaFont"
CHARSET_ENCODING "FONTSPECIFIC"
AVG_CAPITAL_WIDTH 22
AVG_LOWERCASE_WIDTH 16
COPYRIGHT "MetaFont (public domain)"
DEVICE_FONT_NAME "msbm10"
FULLNAME "msbm10"
ENDPROPERTIES
CHARS 123
STARTCHAR Gamma
ENCODING 0
SWIDTH 776 0
DWIDTH 13 0
BBX 10 19 1 -6
BITMAP
0040
0180
0600
1800
6000
c000
3000
0c00
0300
00c0
0000
0400
ffc0
0400
0400
0400
ffc0
0400
0400
ENDCHAR
STARTCHAR Delta
ENCODING 1
SWIDTH 776 0
DWIDTH 13 0
BBX 10 19 1 -6
BITMAP
8000
6000
1800
0600
0180
00c0
0300
0c00
3000
c000
0000
0400
ffc0
0400
0400
0400
ffc0
0400
0400
ENDCHAR
STARTCHAR Theta
ENCODING 2
SWIDTH 776 0
DWIDTH 13 0
BBX 10 18 1 -5
BITMAP
0080
0100
0100
01c0
0300
0e00
3400
c400
6400
1800
0e00
0980
1040
1000
2000
2000
ffc0
4000
ENDCHAR
STARTCHAR Lamdba
ENCODING 3
SWIDTH 776 0
DWIDTH 13 0
BBX 10 18 1 -5
BITMAP
0080
0100
0100
c100
3200
0e00
0700
04c0
0580
0e00
1800
6800
9000
1000
2000
2000
ffc0
4000
ENDCHAR
STARTCHAR Xi
ENCODING 4
SWIDTH 776 0
DWIDTH 13 0
BBX 10 15 1 -3
BITMAP
0080
0100
0140
03c0
0600
1c00
6400
8800
6800
1800
1600
1180
2040
2000
4000
ENDCHAR
STARTCHAR Pi
ENCODING 5
SWIDTH 776 0
DWIDTH 13 0
BBX 10 15 1 -3
BITMAP
0080
0100
0100
6200
1a00
0600
0580
0840
0980
0e00
1800
7000
a000
2000
4000
ENDCHAR
STARTCHAR Sigma
ENCODING 6
SWIDTH 776 0
DWIDTH 13 0
BBX 10 15 1 -3
BITMAP
0080
0100
0100
0240
0240
0480
0700
fc00
0b00
0880
1040
1040
2040
2000
4000
ENDCHAR
STARTCHAR Upsilon
ENCODING 7
SWIDTH 776 0
DWIDTH 13 0
BBX 10 15 1 -3
BITMAP
0080
0100
0100
8200
8200
4400
3c00
0fc0
3800
4800
9000
9000
a000
2000
4000
ENDCHAR
STARTCHAR Phi
ENCODING 8
SWIDTH 776 0
DWIDTH 13 0
BBX 10 19 1 -6
BITMAP
0040
0180
0600
1800
6000
c000
3000
0c00
0300
00c0
0000
0100
ffc0
0400
0400
0800
ffc0
2000
2000
ENDCHAR
STARTCHAR Psi
ENCODING 9
SWIDTH 776 0
DWIDTH 13 0
BBX 10 19 1 -6
BITMAP
8000
6000
1800
0600
0180
00c0
0300
0c00
3000
c000
0000
0100
ffc0
0400
0400
0800
ffc0
2000
2000
ENDCHAR
STARTCHAR Omega
ENCODING 10
SWIDTH 776 0
DWIDTH 13 0
BBX 10 18 1 -5
BITMAP
0080
0100
0100
01c0
0300
0e00
3400
c400
6400
1800
0e00
8980
7040
1800
2600
2180
2040
4000
ENDCHAR
STARTCHAR arrowup
ENCODING 11
SWIDTH 776 0
DWIDTH 13 0
BBX 10 18 1 -5
BITMAP
0080
0100
0100
c100
3200
0e00
0700
04c0
0580
0e00
1800
6840
9180
1600
3800
6000
a000
4000
ENDCHAR
STARTCHAR arrowdown
ENCODING 12
SWIDTH 776 0
DWIDTH 13 0
BBX 10 16 1 -5
BITMAP
0040
0180
0600
1800
6000
c000
3000
0c00
0300
00c0
0000
0000
0200
ffc0
0800
1000
ENDCHAR
STARTCHAR quotesingle
ENCODING 13
SWIDTH 776 0
DWIDTH 13 0
BBX 10 16 1 -5
BITMAP
8000
6000
1800
0600
0180
00c0
0300
0c00
3000
c000
0000
0000
0200
ffc0
0800
1000
ENDCHAR
STARTCHAR exclamdown
ENCODING 14
SWIDTH 776 0
DWIDTH 13 0
BBX 10 18 1 -5
BITMAP
0080
0100
0100
0140
0240
0280
0700
fc00
0700
0880
0840
0840
1040
1000
2000
2000
ffc0
4000
ENDCHAR
STARTCHAR questiondown
ENCODING 15
SWIDTH 776 0
DWIDTH 13 0
BBX 10 18 1 -5
BITMAP
0080
0100
0100
8100
8200
4200
3c00
0fc0
3400
4800
8800
8800
9000
1000
2000
2000
ffc0
4000
ENDCHAR
STARTCHAR dotlessi
ENCODING 16
SWIDTH 776 0
DWIDTH 13 0
BBX 10 19 1 -7
BITMAP
0040
0040
0040
0080
0300
fc00
0700
0080
0040
0040
0000
0200
0200
7440
8c40
8c40
8b80
1000
1000
ENDCHAR
STARTCHAR dotlessj
ENCODING 17
SWIDTH 776 0
DWIDTH 13 0
BBX 10 19 1 -7
BITMAP
8000
8000
8000
4000
3000
0fc0
3800
4000
8000
8000
0000
0200
0200
7440
8c40
8c40
8b80
1000
1000
ENDCHAR
STARTCHAR grave
ENCODING 18
SWIDTH 776 0
DWIDTH 13 0
BBX 10 19 1 -7
BITMAP
0040
0180
0600
1800
6000
c000
3000
0c00
0300
00c0
0000
0200
0200
7440
8c40
8c40
8b80
1000
1000
ENDCHAR
STARTCHAR acute
ENCODING 19
SWIDTH 776 0
DWIDTH 13 0
BBX 10 19 1 -7
BITMAP
8000
6000
1800
0600
0180
00c0
0300
0c00
3000
c000
0000
0200
0200
7440
8c40
8c40
8b80
1000
1000
ENDCHAR
STARTCHAR caron
ENCODING 20
SWIDTH 776 0
DWIDTH 13 0
BBX 10 22 1 -7
BITMAP
0080
0100
0100
01c0
0300
0e00
3200
c200
6400
1c00
0600
0980
0840
0800
1000
ffc0
1000
2000
2000
ffc0
2000
4000
ENDCHAR
STARTCHAR breve
ENCODING 21
SWIDTH 776 0
DWIDTH 13 0
BBX 10 22 1 -7
BITMAP
0080
0100
0100
c100
3100
0e00
0300
02c0
0580
0600
1c00
6800
8800
0800
1000
ffc0
1000
2000
2000
ffc0
2000
4000
ENDCHAR
STARTCHAR macron
ENCODING 22
SWIDTH 776 0
DWIDTH 13 0
BBX 10 19 1 -6
BITMAP
0040
0040
0080
0100
7e00
fe00
0100
0080
0040
0040
0000
0100
ffc0
0400
0400
0800
ffc0
2000
2000
ENDCHAR
STARTCHAR ring
ENCODING 23
SWIDTH 776 0
DWIDTH 13 0
BBX 10 19 1 -6
BITMAP
8000
8000
4000
2000
1f80
1fc0
2000
4000
8000
8000
0000
0100
ffc0
0400
0400
0800
ffc0
2000
2000
ENDCHAR
STARTCHAR cedilla
ENCODING 24
SWIDTH 776 0
DWIDTH 13 0
BBX 10 18 1 -5
BITMAP
0040
0040
0080
0300
fc00
0300
0080
0040
0040
0000
7240
4a40
8480
8780
7840
4840
9480
9380
ENDCHAR
STARTCHAR germandbls
ENCODING 25
SWIDTH 776 0
DWIDTH 13 0
BBX 10 18 1 -5
BITMAP
8000
8000
4000
3000
0fc0
3000
4000
8000
8000
0000
7240
4a40
8480
8780
7840
4840
9480
9380
ENDCHAR
STARTCHAR ae
ENCODING 26
SWIDTH 776 0
DWIDTH 13 0
BBX 10 19 1 -6
BITMAP
00c0
0300
0c00
3000
c000
3000
0c00
0300
00c0
0200
7240
8c40
8440
8780
7840
8840
8c40
9380
1000
ENDCHAR
STARTCHAR oe
ENCODING 27
SWIDTH 776 0
DWIDTH 13 0
BBX 10 19 1 -6
BITMAP
c000
3000
0c00
0300
00c0
0300
0c00
3000
c000
0200
7240
8c40
8440
8780
7840
8840
8c40
9380
1000
ENDCHAR
STARTCHAR oslash
ENCODING 28
SWIDTH 776 0
DWIDTH 13 0
BBX 10 8 1 0
BITMAP
0100
0200
7440
7c40
8f80
8b80
1000
2000
ENDCHAR
STARTCHAR AE
ENCODING 29
SWIDTH 776 0
DWIDTH 13 0
BBX 10 13 1 -3
BITMAP
0080
7140
8940
8680
8700
0400
0800
0800
ffc0
2000
2000
4000
ffc0
ENDCHAR
STARTCHAR OE
ENCODING 30
SWIDTH 896 0
DWIDTH 15 0
BBX 14 15 0 -3
BITMAP
0004
0008
0010
0020
0040
0040
0080
0100
0200
0400
0800
1000
2000
4000
8000
ENDCHAR
STARTCHAR Oslash
ENCODING 31
SWIDTH 896 0
DWIDTH 15 0
BBX 14 15 0 -3
BITMAP
8000
4000
2000
1000
0800
0400
0200
0100
0080
0040
0040
0020
0010
0008
0004
ENDCHAR
STARTCHAR tilde
ENCODING 32
SWIDTH 776 0
DWIDTH 13 0
BBX 10 16 1 -5
BITMAP
1fc0
2000
4000
8000
8000
8000
8000
4100
2100
1fc0
0400
0400
0800
ffc0
2000
2000
ENDCHAR
STARTCHAR exclam
ENCODING 33
SWIDTH 776 0
DWIDTH 13 0
BBX 10 16 1 -5
BITMAP
fe00
0100
0080
0040
0040
0040
0040
0080
0900
fe00
1000
2000
2000
ffc0
4000
8000
ENDCHAR
STARTCHAR quotedblright
ENCODING 34
SWIDTH 776 0
DWIDTH 13 0
BBX 10 19 1 -5
BITMAP
0080
1fc0
2100
4100
8200
8200
8200
8400
4400
2800
1fc0
0800
1000
1000
ffc0
2000
2000
4000
ffc0
ENDCHAR
STARTCHAR numbersign
ENCODING 35
SWIDTH 776 0
DWIDTH 13 0
BBX 10 19 1 -5
BITMAP
0080
fe80
0100
0180
0240
0240
0240
0440
0480
0900
fe00
0800
1000
1000
ffc0
2000
2000
4000
ffc0
ENDCHAR
STARTCHAR dollar
ENCODING 36
SWIDTH 776 0
DWIDTH 13 0
BBX 10 21 1 -8
BITMAP
1fc0
2000
4000
8000
8000
8000
8000
4000
2000
1fc0
0000
0000
0100
0100
ffc0
0400
0400
0800
ffc0
1000
2000
ENDCHAR
STARTCHAR percent
ENCODING 37
SWIDTH 776 0
DWIDTH 13 0
BBX 10 21 1 -8
BITMAP
fe00
0100
0080
0040
0040
0040
0040
0080
0100
fe00
0000
0000
0100
0100
ffc0
0400
0400
0800
ffc0
1000
2000
ENDCHAR
STARTCHAR ampersand
ENCODING 38
SWIDTH 776 0
DWIDTH 13 0
BBX 10 20 1 -7
BITMAP
1fc0
2000
4000
8000
8000
8000
8000
4080
2080
1fc0
0100
0200
0200
ffc0
0400
0800
0800
ffc0
1000
2000
ENDCHAR
STARTCHAR quoteright
ENCODING 39
SWIDTH 776 0
DWIDTH 13 0
BBX 10 20 1 -7
BITMAP
fe00
0100
0080
0040
0040
0040
0040
0080
0900
fe00
0800
1000
1000
ffc0
2000
2000
2000
ffc0
4000
4000
ENDCHAR
STARTCHAR parenleft
ENCODING 40
SWIDTH 776 0
DWIDTH 13 0
BBX 10 16 1 -5
BITMAP
1fc0
2000
4000
8000
8000
8000
8000
4000
2000
1fc0
0000
0100
0200
ffc0
1000
2000
ENDCHAR
STARTCHAR parenright
ENCODING 41
SWIDTH 776 0
DWIDTH 13 0
BBX 10 16 1 -5
BITMAP
fe00
0100
0080
0040
0040
0040
0040
0080
0100
fe00
0000
0200
0400
ffc0
0800
1000
ENDCHAR
STARTCHAR asterisk
ENCODING 42
SWIDTH 776 0
DWIDTH 13 0
BBX 10 18 1 -5
BITMAP
0080
0100
0100
1fc0
2200
4200
8400
8400
8400
8800
4800
2800
1fc0
1000
2000
2000
ffc0
4000
ENDCHAR
STARTCHAR plus
ENCODING 43
SWIDTH 776 0
DWIDTH 13 0
BBX 10 18 1 -5
BITMAP
0080
0100
0100
ff00
0300
0280
0440
0440
0440
0840
0880
0900
fe00
1000
2000
2000
ffc0
4000
ENDCHAR
STARTCHAR comma
ENCODING 44
SWIDTH 478 0
DWIDTH 8 0
BBX 7 15 0 -3
BITMAP
44
44
44
44
46
44
4c
54
54
64
44
c4
44
44
44
ENDCHAR
STARTCHAR hyphen
ENCODING 45
SWIDTH 298 0
DWIDTH 5 0
BBX 4 16 0 -4
BITMAP
20
20
20
20
30
20
60
a0
20
20
20
20
20
20
20
20
ENDCHAR
STARTCHAR period
ENCODING 46
SWIDTH 239 0
DWIDTH 4 0
BBX 3 7 0 0
BITMAP
20
20
60
a0
20
20
20
ENDCHAR
STARTCHAR slash
ENCODING 47
SWIDTH 358 0
DWIDTH 6 0
BBX 5 7 0 0
BITMAP
50
58
70
d0
50
50
50
ENDCHAR
STARTCHAR 0
ENCODING 48
SWIDTH 597 0
DWIDTH 10 0
BBX 9 12 -1 0
BITMAP
2080
2100
2100
2200
2400
3f80
2800
3000
2000
2000
6000
a000
ENDCHAR
STARTCHAR 1
ENCODING 49
SWIDTH 717 0
DWIDTH 12 0
BBX 11 12 -1 0
BITMAP
2220
2240
2280
2300
2200
23e0
2600
2a00
3200
2200
6200
a200
ENDCHAR
STARTCHAR 2
ENCODING 50
SWIDTH 597 0
DWIDTH 10 0
BBX 9 12 -1 0
BITMAP
2080
2100
3f80
2200
2400
2800
2800
3f80
2000
2000
6000
a000
ENDCHAR
STARTCHAR 3
ENCODING 51
SWIDTH 717 0
DWIDTH 12 0
BBX 11 12 -1 0
BITMAP
2220
2240
2280
23e0
2200
2200
2600
2be0
3200
2200
6200
a200
ENDCHAR
STARTCHAR 4
ENCODING 52
SWIDTH 776 0
DWIDTH 13 0
BBX 10 18 1 -5
BITMAP
0080
0100
0100
c200
b200
8e00
8700
84c0
85c0
8e00
9800
e800
9000
1000
1000
2000
ffc0
2000
ENDCHAR
STARTCHAR 5
ENCODING 53
SWIDTH 776 0
DWIDTH 13 0
BBX 9 18 2 -5
BITMAP
0100
0200
0200
0580
0680
1c80
6880
8880
c880
3080
1c80
1380
2080
2000
2000
4000
ff80
4000
ENDCHAR
STARTCHAR 6
ENCODING 54
SWIDTH 776 0
DWIDTH 13 0
BBX 9 15 2 -3
BITMAP
0100
0200
0200
0580
0680
1880
6880
9080
d080
3080
2c80
2380
4080
4000
4000
ENDCHAR
STARTCHAR 7
ENCODING 55
SWIDTH 776 0
DWIDTH 13 0
BBX 10 15 1 -3
BITMAP
0080
0100
0100
c200
b200
8c00
8700
88c0
89c0
8e00
9800
f000
a000
2000
2000
ENDCHAR
STARTCHAR 8
ENCODING 56
SWIDTH 1015 0
DWIDTH 17 0
BBX 14 8 1 0
BITMAP
0080
2080
4100
fffc
4200
2200
0400
0400
ENDCHAR
STARTCHAR 9
ENCODING 57
SWIDTH 1015 0
DWIDTH 17 0
BBX 14 8 1 0
BITMAP
0080
0090
0108
fffc
0208
0210
0400
0400
ENDCHAR
STARTCHAR colon
ENCODING 58
SWIDTH 1015 0
DWIDTH 17 0
BBX 13 10 2 0
BITMAP
0040
0880
1080
3ff8
c100
8100
4200
3ff8
1200
0c00
ENDCHAR
STARTCHAR semicolon
ENCODING 59
SWIDTH 1015 0
DWIDTH 17 0
BBX 13 10 1 0
BITMAP
0100
0180
0240
ffe0
0418
0408
0410
ffe0
0840
1080
ENDCHAR
STARTCHAR less
ENCODING 60
SWIDTH 1015 0
DWIDTH 17 0
BBX 12 12 2 -2
BITMAP
0100
1180
2240
7fe0
8210
8210
4420
3fc0
2440
1480
0800
0800
ENDCHAR
STARTCHAR equal
ENCODING 61
SWIDTH 1015 0
DWIDTH 17 0
BBX 14 8 1 0
BITMAP
0080
2090
4108
fffc
4208
2210
0400
0400
ENDCHAR
STARTCHAR greater
ENCODING 62
SWIDTH 776 0
DWIDTH 13 0
BBX 10 9 1 0
BITMAP
4c80
2d00
1200
0c00
ffc0
0c00
1200
2d00
4c80
ENDCHAR
STARTCHAR question
ENCODING 63
SWIDTH 776 0
DWIDTH 13 0
BBX 10 8 1 1
BITMAP
3fc0
4180
4280
4480
4880
5080
6080
ff00
ENDCHAR
STARTCHAR at
ENCODING 64
SWIDTH 537 0
DWIDTH 9 0
BBX 6 17 1 -2
BITMAP
08
08
10
fc
14
14
14
14
7c
24
24
24
24
24
fc
20
40
ENDCHAR
STARTCHAR A
ENCODING 65
SWIDTH 717 0
DWIDTH 12 0
BBX 12 11 0 0
BITMAP
0400
0600
0a00
0d00
0d00
1280
1280
3f40
2140
2120
f3f0
ENDCHAR
STARTCHAR B
ENCODING 66
SWIDTH 537 0
DWIDTH 9 0
BBX 10 11 0 0
BITMAP
ff00
2c80
2c80
2d80
2e00
2b80
2a40
2a40
2a40
2a80
ff00
ENDCHAR
STARTCHAR C
ENCODING 67
SWIDTH 597 0
DWIDTH 10 0
BBX 10 11 1 0
BITMAP
1f40
28c0
5040
9040
9000
9000
9000
9000
5040
2880
1f00
ENDCHAR
STARTCHAR D
ENCODING 68
SWIDTH 657 0
DWIDTH 11 0
BBX 11 11 1 0
BITMAP
ff00
5280
5140
5120
5120
5120
5120
5120
5140
5280
ff00
ENDCHAR
STARTCHAR E
ENCODING 69
SWIDTH 717 0
DWIDTH 12 0
BBX 10 11 1 0
BITMAP
ff80
4980
4c80
4c00
4c00
4c00
4c00
4c40
4880
4980
ff80
ENDCHAR
STARTCHAR F
ENCODING 70
SWIDTH 597 0
DWIDTH 10 0
BBX 9 11 1 0
BITMAP
ff80
4b80
4d80
4c00
4c00
4c00
4c00
4c00
4800
4800
fe00
ENDCHAR
STARTCHAR G
ENCODING 71
SWIDTH 836 0
DWIDTH 14 0
BBX 11 11 1 0
BITMAP
1f40
28c0
5040
9040
9000
9000
9fe0
9240
5240
2a40
1f80
ENDCHAR
STARTCHAR H
ENCODING 72
SWIDTH 776 0
DWIDTH 13 0
BBX 11 11 1 0
BITMAP
fbe0
5140
5140
5140
5f40
5140
5140
5140
5140
5140
fbe0
ENDCHAR
STARTCHAR I
ENCODING 73
SWIDTH 418 0
DWIDTH 7 0
BBX 7 11 0 0
BITMAP
fe
28
28
28
28
28
28
28
28
28
fe
ENDCHAR
STARTCHAR J
ENCODING 74
SWIDTH 478 0
DWIDTH 8 0
BBX 7 12 0 -1
BITMAP
7e
14
14
14
14
14
14
14
14
f4
94
78
ENDCHAR
STARTCHAR K
ENCODING 75
SWIDTH 776 0
DWIDTH 13 0
BBX 12 11 1 0
BITMAP
fbe0
5080
5100
5200
5500
5900
5480
5480
5240
5220
fbf0
ENDCHAR
STARTCHAR L
ENCODING 76
SWIDTH 657 0
DWIDTH 11 0
BBX 10 11 1 0
BITMAP
fc00
4800
4800
4800
4800
4800
4800
4840
4880
4980
ff80
ENDCHAR
STARTCHAR M
ENCODING 77
SWIDTH 956 0
DWIDTH 16 0
BBX 17 11 -1 0
BITMAP
fc0f00
141a00
121a00
1a3a00
193a00
156a00
14ea00
12ca00
124a00
118a00
3c9f80
ENDCHAR
STARTCHAR N
ENCODING 78
SWIDTH 717 0
DWIDTH 12 0
BBX 10 11 1 0
BITMAP
ffc0
5480
4a80
4980
4580
4480
4280
4280
4180
4180
f080
ENDCHAR
STARTCHAR O
ENCODING 79
SWIDTH 776 0
DWIDTH 13 0
BBX 11 11 1 0
BITMAP
1f00
2a80
5140
9120
9120
9120
9120
9120
5140
2a80
1f00
ENDCHAR
STARTCHAR P
ENCODING 80
SWIDTH 597 0
DWIDTH 10 0
BBX 9 11 1 0
BITMAP
fe00
5580
5480
5480
5f00
5000
5000
5000
5000
5000
f800
ENDCHAR
STARTCHAR Q
ENCODING 81
SWIDTH 776 0
DWIDTH 13 0
BBX 11 14 1 -3
BITMAP
1f00
2a80
5140
9120
9120
9120
9120
9120
5140
2a80
1f00
0a00
0500
03e0
ENDCHAR
STARTCHAR R
ENCODING 82
SWIDTH 717 0
DWIDTH 12 0
BBX 11 11 1 0
BITMAP
ff00
5480
5480
5480
5f00
5500
5500
5280
5240
5140
f9e0
ENDCHAR
STARTCHAR S
ENCODING 83
SWIDTH 537 0
DWIDTH 9 0
BBX 7 11 1 0
BITMAP
7e
c6
c2
a2
98
64
1a
86
86
c6
fc
ENDCHAR
STARTCHAR T
ENCODING 84
SWIDTH 657 0
DWIDTH 11 0
BBX 10 11 1 0
BITMAP
ffc0
d540
94c0
9440
1400
1400
1400
1400
1400
1400
7f00
ENDCHAR
STARTCHAR U
ENCODING 85
SWIDTH 717 0
DWIDTH 12 0
BBX 10 11 1 0
BITMAP
ffc0
4880
4880
4880
4880
4880
4880
4880
4880
2900
1e00
ENDCHAR
STARTCHAR V
ENCODING 86
SWIDTH 717 0
DWIDTH 12 0
BBX 12 11 0 0
BITMAP
fcf0
4860
2840
2840
1480
1480
0b00
0b00
0700
0600
0200
ENDCHAR
STARTCHAR W
ENCODING 87
SWIDTH 1015 0
DWIDTH 17 0
BBX 17 11 0 0
BITMAP
fbf780
50a300
50a300
28a200
28d200
195400
152c00
162c00
0a1800
0c1800
041000
ENDCHAR
STARTCHAR X
ENCODING 88
SWIDTH 717 0
DWIDTH 12 0
BBX 14 11 -1 0
BITMAP
fff8
2260
1240
0980
0880
0480
0640
0a20
0910
1090
79fc
ENDCHAR
STARTCHAR Y
ENCODING 89
SWIDTH 717 0
DWIDTH 12 0
BBX 12 11 0 0
BITMAP
fef0
2440
2240
1180
0980
0900
0500
0500
0500
0500
1fc0
ENDCHAR
STARTCHAR Z
ENCODING 90
SWIDTH 657 0
DWIDTH 11 0
BBX 9 11 1 0
BITMAP
ff80
e900
8900
1200
1200
2400
2400
4880
4880
9380
ff80
ENDCHAR
STARTCHAR bracketleft
ENCODING 91
SWIDTH 1852 0
DWIDTH 31 0
BBX 30 5 0 9
BITMAP
00078000
00f87c00
0f8007c0
f800007c
80000004
ENDCHAR
STARTCHAR leftdblquote
ENCODING 92
SWIDTH 2330 0
DWIDTH 39 0
BBX 38 5 0 9
BITMAP
0000fc0000
001f03e000
07e0001f80
fc000000fc
8000000004
ENDCHAR
STARTCHAR bracketright
ENCODING 93
SWIDTH 1852 0
DWIDTH 31 0
BBX 30 4 0 10
BITMAP
03fc000c
3fff807c
f807fff0
c000ff00
ENDCHAR
STARTCHAR circumflex
ENCODING 94
SWIDTH 2330 0
DWIDTH 39 0
BBX 38 5 0 10
BITMAP
003f80000c
03ffe0007c
3f807807f0
f8001fff00
c00007f000
ENDCHAR
STARTCHAR leftquote
ENCODING 96
SWIDTH 537 0
DWIDTH 9 0
BBX 6 12 1 0
BITMAP
04
04
04
04
04
1c
04
04
04
04
04
fc
ENDCHAR
STARTCHAR a
ENCODING 97
SWIDTH 657 0
DWIDTH 11 0
BBX 8 11 1 0
BITMAP
78
84
02
01
01
e1
81
81
82
84
78
ENDCHAR
STARTCHAR f
ENCODING 102
SWIDTH 717 0
DWIDTH 12 0
BBX 9 11 1 0
BITMAP
6300
6300
c180
4100
4100
8080
8080
8080
8080
4100
3e00
ENDCHAR
STARTCHAR g
ENCODING 103
SWIDTH 537 0
DWIDTH 9 0
BBX 6 12 1 0
BITMAP
e4
9c
e8
08
34
4c
84
84
84
84
48
30
ENDCHAR
STARTCHAR h
ENCODING 104
SWIDTH 776 0
DWIDTH 13 0
BBX 10 7 1 1
BITMAP
ffc0
0000
0040
7040
8840
8480
8380
ENDCHAR
STARTCHAR i
ENCODING 105
SWIDTH 657 0
DWIDTH 11 0
BBX 9 13 1 0
BITMAP
fe00
7f00
0100
0100
0100
0100
0100
0100
0100
0100
0100
0100
ff80
ENDCHAR
STARTCHAR j
ENCODING 106
SWIDTH 418 0
DWIDTH 7 0
BBX 5 13 1 0
BITMAP
e0
70
10
10
10
10
10
18
18
18
18
10
f0
ENDCHAR
STARTCHAR k
ENCODING 107
SWIDTH 657 0
DWIDTH 11 0
BBX 9 13 1 0
BITMAP
fe00
7f00
0100
0100
0100
0100
0100
0180
0180
0180
0180
0100
0100
ENDCHAR
STARTCHAR l
ENCODING 108
SWIDTH 776 0
DWIDTH 13 0
BBX 10 11 1 -1
BITMAP
0040
01c0
0600
1800
6000
8300
6000
1800
0600
0180
0040
ENDCHAR
STARTCHAR m
ENCODING 109
SWIDTH 776 0
DWIDTH 13 0
BBX 10 10 1 -1
BITMAP
6000
1800
0600
0180
3040
0180
0600
1800
6000
8000
ENDCHAR
STARTCHAR n
ENCODING 110
SWIDTH 776 0
DWIDTH 13 0
BBX 8 9 2 0
BITMAP
81
c2
a4
98
90
98
a4
c2
81
ENDCHAR
STARTCHAR o
ENCODING 111
SWIDTH 776 0
DWIDTH 13 0
BBX 8 9 2 0
BITMAP
81
43
25
19
11
19
25
43
81
ENDCHAR
STARTCHAR p
ENCODING 112
SWIDTH 239 0
DWIDTH 4 0
BBX 1 7 2 0
BITMAP
80
80
80
80
80
80
80
ENDCHAR
STARTCHAR q
ENCODING 113
SWIDTH 358 0
DWIDTH 6 0
BBX 3 7 1 0
BITMAP
a0
a0
a0
a0
a0
a0
a0
ENDCHAR
STARTCHAR r
ENCODING 114
SWIDTH 776 0
DWIDTH 13 0
BBX 10 7 1 0
BITMAP
c000
2000
1000
0c00
0200
0100
00c0
ENDCHAR
STARTCHAR s
ENCODING 115
SWIDTH 776 0
DWIDTH 13 0
BBX 10 4 1 2
BITMAP
7040
7c40
8f80
8380
ENDCHAR
STARTCHAR t
ENCODING 116
SWIDTH 776 0
DWIDTH 13 0
BBX 10 8 1 0
BITMAP
7040
7c40
8f80
8380
7040
7c40
8f80
8380
ENDCHAR
STARTCHAR u
ENCODING 117
SWIDTH 776 0
DWIDTH 13 0
BBX 10 12 1 -2
BITMAP
7040
4840
8480
8380
7040
4840
8480
8380
0000
0000
0000
ffc0
ENDCHAR
STARTCHAR v
ENCODING 118
SWIDTH 776 0
DWIDTH 13 0
BBX 10 18 1 -5
BITMAP
8000
8000
4000
3000
0fc0
3000
4000
8000
8000
0000
7040
4840
8480
8380
7040
4840
8480
8380
ENDCHAR
STARTCHAR w
ENCODING 119
SWIDTH 776 0
DWIDTH 13 0
BBX 10 18 1 -5
BITMAP
0040
0040
0080
0300
fc00
0300
0080
0040
0040
0000
7040
4840
8480
8380
7040
4840
8480
8380
ENDCHAR
STARTCHAR x
ENCODING 120
SWIDTH 1015 0
DWIDTH 17 0
BBX 15 7 1 0
BITMAP
07e0
0810
1008
2004
a804
7004
2002
ENDCHAR
STARTCHAR y
ENCODING 121
SWIDTH 1015 0
DWIDTH 17 0
BBX 16 7 0 0
BITMAP
0fe0
1010
2008
4004
4015
400e
8004
ENDCHAR
STARTCHAR z
ENCODING 122
SWIDTH 776 0
DWIDTH 13 0
BBX 10 11 1 -1
BITMAP
3fc0
3800
3800
3800
7000
7e00
7000
7000
e000
e000
e000
ENDCHAR
STARTCHAR endash
ENCODING 123
SWIDTH 657 0
DWIDTH 11 0
BBX 10 7 1 0
BITMAP
30c0
5180
1700
0e00
3a00
6280
c300
ENDCHAR
STARTCHAR emdash
ENCODING 124
SWIDTH 537 0
DWIDTH 9 0
BBX 9 11 0 0
BITMAP
f800
4800
4800
4f80
4a00
4e00
4e00
4900
4d00
4d00
ff00
ENDCHAR
STARTCHAR quotedbl
ENCODING 125
SWIDTH 537 0
DWIDTH 9 0
BBX 7 12 1 0
BITMAP
70
16
38
e0
20
38
68
48
48
50
94
88
ENDCHAR
STARTCHAR hungarumlaut
ENCODING 126
SWIDTH 537 0
DWIDTH 9 0
BBX 6 12 1 0
BITMAP
70
10
7c
20
20
38
68
48
48
50
94
88
ENDCHAR
STARTCHAR dieresis
ENCODING 127
SWIDTH 418 0
DWIDTH 7 0
BBX 5 7 1 0
BITMAP
70
08
08
08
38
10
e0
ENDCHAR
ENDFONT
